<svg viewBox="0 0 412 97" xmlns="http://www.w3.org/2000/svg" xml:space="preserve" style="fill-rule:evenodd;clip-rule:evenodd;stroke-linejoin:round;stroke-miterlimit:2"><path d="M235.75 314.93h-20.78v45.62h20.78c12.61 0 22.87-10.26 22.87-22.87 0-12.55-10.26-22.75-22.87-22.75Zm16.96 22.74c0 10.39-7.57 17.93-17.99 17.93h-14.36v-35.8h14.36c10.42.01 17.99 7.52 17.99 17.87ZM364.96 320v23c0 7.5-4.76 12.54-11.84 12.54-6.89 0-11.71-5.21-11.71-12.66v-27.94h-.24c-2.8 0-5.08 2.28-5.08 5.08v23.25c0 10.02 7.16 17.28 17.03 17.28 9.94 0 17.16-7.27 17.16-17.28v-28.33h-.24c-2.8-.01-5.08 2.27-5.08 5.06ZM429.59 315.05l-12.56 35.48-12.75-35.48c-2.12 0-3.95 1.52-4.33 3.61l-7.74 41.87h5.41l5.57-33.78 11.84 33.62.06.16h3.7l.06-.17 11.72-33.62 5.7 33.79 5.4-.01-7.73-41.86c-.4-2.09-2.22-3.61-4.35-3.61ZM469.38 339.79h18.51v-4.81h-18.5v-15.23h16.84c2.66 0 4.81-2.15 4.81-4.81h-27.12v45.62h27.11c0-2.66-2.15-4.81-4.81-4.81h-16.84v-15.96ZM520.44 355.73v-40.8h-.25c-2.87 0-5.21 2.34-5.21 5.21v40.41h24.03v-4.82h-18.57ZM559.53 320.45v40.09h5.52v-45.61c-3.05 0-5.52 2.47-5.52 5.52ZM313.38 360.11l-9.41-17.93c5.83-2.45 9.44-7.51 9.44-13.27 0-7.71-6.41-13.98-14.3-13.98h-18.17v45.62h5.46v-.25l.13-40.17h12.26c4.81 0 9.03 4.13 9.03 8.84 0 5.05-4.05 9.16-9.03 9.16h-4.88c-2.44.08-4.4 2.07-4.4 4.53v.22h8.81l8.9 17.46.07.13h6.29l-.2-.36ZM626.78 360.2l-18.91-43.71c-.37-.87-1.23-1.43-2.17-1.43-.98 0-1.86.57-2.26 1.46l-19.6 43.62-.16.35h5.31l.07-.14 16.45-36.23h.2l15.85 36.26.06.15h5.31l-.15-.33Z" style="fill:#c7af87;fill-rule:nonzero" transform="translate(-214.97 -314.93)"/><g><path d="M343.65 410.98h-5.12l-3.93-6.09v6.09h-4.12v-15.83h6.41c.88 0 1.65.13 2.31.39.66.26 1.2.61 1.63 1.06.43.45.75.97.97 1.55.22.59.33 1.22.33 1.89 0 1.21-.29 2.18-.87 2.93-.58.75-1.44 1.26-2.57 1.52l4.96 6.49Zm-9.05-8.76h.78c.81 0 1.44-.17 1.87-.5.43-.33.65-.82.65-1.45s-.22-1.11-.65-1.45c-.43-.34-1.06-.5-1.87-.5h-.78v3.9ZM359.03 398.63h-4.89v2.65h4.62v3.49h-4.62v2.73h4.89v3.49h-9.01v-15.83h9.01v3.47ZM376.33 408.23h-5.88l-.95 2.75h-4.39l6.03-15.83h4.49l6.03 15.83h-4.39l-.94-2.75Zm-1.09-3.13-1.85-5.27-1.85 5.27h3.7ZM392.23 395.15v12.35h4.93v3.49h-9.05v-15.83h4.12v-.01ZM424.71 398.63h-4.89v2.65h4.62v3.49h-4.62v2.73h4.89v3.49h-9.01v-15.83h9.01v3.47ZM441.01 399.2c-.45-.36-.9-.63-1.34-.81-.45-.17-.88-.26-1.3-.26-.53 0-.97.13-1.3.38-.33.25-.5.58-.5.99 0 .28.08.51.25.69.17.18.39.34.66.47.27.13.58.25.92.35.34.1.68.2 1.02.31 1.34.45 2.33 1.05 2.95 1.8.62.75.93 1.73.93 2.93 0 .81-.14 1.55-.41 2.2-.27.66-.67 1.22-1.2 1.69-.52.47-1.17.83-1.93 1.09-.76.26-1.63.39-2.59.39-2 0-3.86-.6-5.56-1.79l1.76-3.32c.62.55 1.22.95 1.83 1.22.6.27 1.2.4 1.79.4.67 0 1.17-.15 1.5-.46.33-.31.49-.66.49-1.05 0-.24-.04-.44-.13-.62-.08-.17-.22-.34-.42-.48-.2-.15-.45-.28-.77-.41-.32-.13-.7-.27-1.14-.42-.53-.17-1.05-.35-1.56-.56-.51-.2-.97-.47-1.37-.81-.4-.34-.72-.76-.97-1.27s-.37-1.16-.37-1.94.13-1.49.39-2.13c.26-.64.62-1.18 1.09-1.64.47-.45 1.04-.81 1.72-1.06.68-.25 1.44-.38 2.28-.38.78 0 1.6.11 2.46.33.85.22 1.67.54 2.46.96l-1.64 3.21ZM456.63 398.63v12.35h-4.12v-12.35h-3.38v-3.49h10.88v3.49h-3.38ZM475.45 408.23h-5.88l-.95 2.75h-4.39l6.03-15.83h4.49l6.03 15.83h-4.39l-.94-2.75Zm-1.09-3.13-1.85-5.27-1.85 5.27h3.7ZM492.54 398.63v12.35h-4.12v-12.35h-3.38v-3.49h10.88v3.49h-3.38ZM511.4 398.63h-4.89v2.65h4.62v3.49h-4.62v2.73h4.89v3.49h-9.01v-15.83h9.01v3.47Z" style="fill:#c7af87;fill-rule:nonzero" transform="translate(-214.97 -314.93)"/></g></svg>